<svg width="24" height="24" viewBox="0 0 24 24" fill="none">
<path fill-rule="evenodd" clip-rule="evenodd" d="M16.2483 4.03139C15.1277 2.91085 13.6142 2.27173 12.0297 2.25H11.9697C10.3851 2.27173 8.87159 2.91085 7.75104 4.03139C6.6305 5.15193 5.99138 6.66546 5.96965 8.25C5.94952 9.37542 6.26605 10.4812 6.87865 11.4255L11.5998 21H12.3995L17.1207 11.4255C17.7333 10.4812 18.0498 9.37542 18.0297 8.25C18.0079 6.66546 17.3688 5.15193 16.2483 4.03139ZM11.8857 3.75L12.0087 3.765L12.1197 3.75C13.298 3.80132 14.4119 4.3021 15.2324 5.14939C16.0529 5.99669 16.5177 7.12611 16.5312 8.3055C16.5425 9.14253 16.2981 9.96309 15.8307 10.6575L15.8007 10.7085L15.7752 10.761L11.9997 18.4185L8.22415 10.7685L8.19865 10.71L8.16865 10.659C7.70116 9.96459 7.45677 9.14403 7.46815 8.307C7.48095 7.12625 7.94624 5.99539 8.76813 5.14755C9.59002 4.2997 10.7059 3.79948 11.8857 3.75ZM12.8028 7.0028C12.5562 6.83797 12.2662 6.75 11.9695 6.75C11.5717 6.75 11.1901 6.90804 10.9088 7.18934C10.6275 7.47064 10.4695 7.85218 10.4695 8.25C10.4695 8.54667 10.5575 8.83668 10.7223 9.08336C10.8871 9.33003 11.1214 9.52229 11.3955 9.63582C11.6695 9.74935 11.9711 9.77906 12.2621 9.72118C12.5531 9.6633 12.8204 9.52044 13.0301 9.31066C13.2399 9.10088 13.3828 8.83361 13.4407 8.54264C13.4985 8.25166 13.4688 7.95006 13.3553 7.67598C13.2418 7.40189 13.0495 7.16762 12.8028 7.0028ZM10.3028 5.75559C10.7961 5.42595 11.3761 5.25 11.9695 5.25C12.7651 5.25 13.5282 5.56607 14.0908 6.12868C14.6534 6.69129 14.9695 7.45435 14.9695 8.25C14.9695 8.84334 14.7935 9.42336 14.4639 9.91671C14.1342 10.4101 13.6657 10.7946 13.1175 11.0216C12.5694 11.2487 11.9662 11.3081 11.3842 11.1924C10.8023 11.0766 10.2677 10.7909 9.84816 10.3713C9.42861 9.95176 9.14288 9.41721 9.02713 8.83527C8.91137 8.25333 8.97078 7.65013 9.19784 7.10195C9.42491 6.55377 9.80943 6.08524 10.3028 5.75559Z" fill="#C5C5C5"/>
</svg>
