<svg width="30" height="30" viewBox="0 0 30 30" fill="none" xmlns="http://www.w3.org/2000/svg">
<path d="M30 14.985C30 6.71329 23.28 0 15 0C6.72 0 0 6.71329 0 14.985C0 19.5405 2.07 23.6464 5.31 26.4036C5.34 26.4336 5.37 26.4336 5.37 26.4635C5.64 26.6733 5.91 26.8831 6.21 27.0929C6.36 27.1828 6.48 27.3027 6.63 27.4226C9.03 29.041 11.91 30 15.03 30C18.15 30 21.03 29.041 23.43 27.4226C23.58 27.3327 23.7 27.2128 23.85 27.1229C24.12 26.9131 24.42 26.7033 24.69 26.4935C24.72 26.4635 24.75 26.4635 24.75 26.4336C27.93 23.6464 30 19.5405 30 14.985ZM15 28.1119C12.18 28.1119 9.6 27.2128 7.47 25.7143C7.5 25.4745 7.56 25.2348 7.62 24.995C7.8 24.3357 8.07 23.7063 8.4 23.1369C8.73 22.5674 9.12 22.0579 9.6 21.6084C10.05 21.1588 10.59 20.7393 11.13 20.4096C11.7 20.0799 12.3 19.8402 12.96 19.6603C13.62 19.4805 14.31 19.3906 15 19.3906C16.11 19.3906 17.13 19.6004 18.06 19.99C18.99 20.3796 19.8 20.9191 20.49 21.5784C21.18 22.2677 21.72 23.0769 22.11 24.006C22.32 24.5455 22.47 25.1149 22.56 25.7143C20.4 27.2128 17.82 28.1119 15 28.1119ZM10.41 14.2358C10.14 13.6364 10.02 12.977 10.02 12.3177C10.02 11.6583 10.14 10.999 10.41 10.3996C10.68 9.8002 11.04 9.26074 11.49 8.81119C11.94 8.36164 12.48 8.002 13.08 7.73227C13.68 7.46254 14.34 7.34266 15 7.34266C15.69 7.34266 16.32 7.46254 16.92 7.73227C17.52 8.002 18.06 8.36164 18.51 8.81119C18.96 9.26074 19.32 9.8002 19.59 10.3996C19.86 10.999 19.98 11.6583 19.98 12.3177C19.98 13.007 19.86 13.6364 19.59 14.2358C19.32 14.8352 18.96 15.3746 18.51 15.8242C18.06 16.2737 17.52 16.6334 16.92 16.9031C15.72 17.4126 14.25 17.4126 13.05 16.9031C12.45 16.6334 11.91 16.2737 11.46 15.8242C11.01 15.3746 10.65 14.8352 10.41 14.2358ZM24.33 24.1858C24.33 24.1259 24.3 24.0959 24.3 24.036C24 23.1069 23.58 22.2078 23.01 21.3986C22.44 20.5894 21.78 19.8701 20.97 19.2707C20.37 18.8212 19.71 18.4316 19.02 18.1319C19.35 17.9221 19.65 17.6523 19.89 17.4126C20.34 16.963 20.73 16.4835 21.06 15.9441C21.39 15.4046 21.63 14.8352 21.81 14.2058C21.99 13.5764 22.05 12.9471 22.05 12.3177C22.05 11.3287 21.87 10.3996 21.51 9.56044C21.15 8.72128 20.64 7.97203 19.98 7.31269C19.35 6.68332 18.57 6.17383 17.73 5.81419C16.89 5.45455 15.96 5.27473 14.97 5.27473C13.98 5.27473 13.05 5.45455 12.21 5.81419C11.37 6.17383 10.59 6.68332 9.96 7.34266C9.33 7.97203 8.82 8.75125 8.46 9.59041C8.1 10.4296 7.92 11.3586 7.92 12.3477C7.92 13.007 8.01 13.6364 8.19 14.2358C8.37 14.8651 8.61 15.4346 8.94 15.974C9.24 16.5135 9.66 16.993 10.11 17.4426C10.38 17.7123 10.68 17.952 11.01 18.1618C10.29 18.4915 9.63 18.8811 9.06 19.3307C8.28 19.9301 7.59 20.6493 7.02 21.4286C6.45 22.2378 6.03 23.1069 5.73 24.0659C5.7 24.1259 5.7 24.1858 5.7 24.2158C3.33 21.8182 1.86 18.5814 1.86 14.985C1.86 7.76224 7.77 1.85814 15 1.85814C22.23 1.85814 28.14 7.76224 28.14 14.985C28.14 18.5814 26.67 21.8182 24.33 24.1858Z" fill="#333333"/>
</svg>
